<svg width="849" height="257" viewBox="0 0 849 257" fill="none" xmlns="http://www.w3.org/2000/svg">
<g filter="url(#filter0_di_4989_2984)">
<path d="M41.8982 158.283L137.44 159.153C137.44 159.153 140.079 160.493 141.421 160.892C143.22 161.428 158.97 161.878 166.102 162.632C190.784 165.241 218.65 166.11 218.65 166.11L257.663 167.867L288.714 170.459L311.007 176.547C311.007 176.547 315.379 177.829 315.784 179.156C316.189 180.483 316.236 185.827 315.784 187.853C315.332 189.879 305.434 191.332 305.434 191.332C305.434 191.332 269.454 201.106 246.516 207.856C224.371 214.373 211.616 218.571 189.988 225.249C168.359 231.928 138.713 235.942 105.593 240.904C93.1749 242.764 86.2007 243.722 73.7454 245.252C61.3246 246.778 41.8982 248.731 41.8982 248.731C41.8982 248.731 4 248.731 4 205.326C4 158.283 41.8982 158.283 41.8982 158.283Z" fill="url(#paint0_linear_4989_2984)"/>
</g>
<g filter="url(#filter1_i_4989_2984)">
<path d="M4.4458 209.229C4.4458 209.229 60.3569 210.601 72.1529 211.337C89.7131 212.431 99.3725 215.25 116.739 218.294C138.898 222.178 173.268 229.6 173.268 229.6C173.268 229.6 148.068 234.591 131.866 237.427C112.632 240.795 101.87 242.963 82.5033 245.255C66.6897 247.125 41.8981 248.733 41.8981 248.733C41.8981 248.733 28.5223 249.221 16.484 238.979C4.4458 228.737 4.4458 209.229 4.4458 209.229Z" fill="url(#paint1_linear_4989_2984)"/>
<path d="M4.4458 209.229C4.4458 209.229 60.3569 210.601 72.1529 211.337C89.7131 212.431 99.3725 215.25 116.739 218.294C138.898 222.178 173.268 229.6 173.268 229.6C173.268 229.6 148.068 234.591 131.866 237.427C112.632 240.795 101.87 242.963 82.5033 245.255C66.6897 247.125 41.8981 248.733 41.8981 248.733C41.8981 248.733 28.5223 249.221 16.484 238.979C4.4458 228.737 4.4458 209.229 4.4458 209.229Z" fill="url(#paint2_linear_4989_2984)" fill-opacity="0.6"/>
</g>
<g filter="url(#filter2_di_4989_2984)">
<path d="M165.306 136.542L257.896 22.538C257.896 22.538 269.788 8.85391 273.587 6.08784C280.752 0.869693 287.122 0.869692 287.122 0.869692L324.542 0L258.459 167.851C258.459 167.851 232.982 168.72 213.077 166.981C188.521 164.835 178.678 164.368 154.16 161.763C151.05 161.432 149.383 162.632 144.606 161.763C139.828 160.893 137.44 159.154 137.44 159.154C137.44 159.154 144.416 158.324 147.79 154.805C165.306 136.542 165.306 136.542 165.306 136.542Z" fill="url(#paint3_linear_4989_2984)"/>
</g>
<path d="M143.013 180.029L160.529 162.635L181.23 165.244C181.23 165.244 170.309 171.149 163.713 175.68C156.553 180.599 153 184.105 146.197 189.595C132.994 200.253 112.758 217.425 112.758 217.425L107.185 216.556L143.013 180.029Z" fill="white"/>
<path d="M143.013 180.029L160.529 162.635L181.23 165.244C181.23 165.244 170.309 171.149 163.713 175.68C156.553 180.599 153 184.105 146.197 189.595C132.994 200.253 112.758 217.425 112.758 217.425L107.185 216.556L143.013 180.029Z" fill="url(#paint4_linear_4989_2984)" fill-opacity="0.2"/>
<path d="M181.229 165.242L201.93 166.112H219.446L234.574 166.981C234.574 166.981 200.287 172.751 179.637 180.897C165.768 186.367 158.375 190.636 145.402 198.29C133.86 205.101 116.739 218.293 116.739 218.293L112.758 217.424L131.07 201.769L150.179 186.115C150.179 186.115 158.141 179.157 166.102 173.939C174.064 168.721 181.229 165.242 181.229 165.242Z" fill="url(#paint5_linear_4989_2984)"/>
<path d="M150.179 161.766C150.179 161.766 152.568 161.766 155.752 161.766C158.936 161.766 160.529 162.635 160.529 162.635L130.274 193.075L107.185 216.556L105.592 216.556C105.592 216.556 116.9 203.116 123.904 194.814C134.51 182.244 150.179 161.766 150.179 161.766Z" fill="#6CACE4"/>
<path d="M202.727 115.668C221.039 100.883 234.574 93.9258 234.574 93.9258L224.224 123.495C224.224 123.495 204.319 132.192 182.026 146.977C159.733 161.762 160.529 162.631 160.529 162.631C160.529 162.631 157.873 161.762 154.956 161.762C152.039 161.762 150.179 161.762 150.179 161.762C150.179 161.762 159.733 150.238 176.453 136.541C193.173 122.843 184.415 130.453 202.727 115.668Z" fill="url(#paint6_linear_4989_2984)"/>
<path d="M248.905 60.0088C254.597 51.7547 254.478 51.3118 264.829 44.3543C275.179 37.3968 288.959 35.2317 303.045 24.3514C317.132 13.4711 323.746 0 323.746 0H324.542L304.638 50.4421C304.638 50.4421 303.809 55.3125 290.187 62.27C276.565 69.2276 266.872 71.5031 254.478 78.2723C242.084 85.0414 234.574 93.9267 234.574 93.9267C234.574 93.9267 243.214 68.2628 248.905 60.0088Z" fill="url(#paint7_linear_4989_2984)"/>
<path d="M160.529 162.634C160.529 162.634 162.122 159.155 188.396 142.631C214.67 126.107 224.223 123.498 224.223 123.498L213.077 153.068C213.077 153.068 213.077 153.068 200.338 158.286C187.599 163.504 181.23 165.243 181.23 165.243L160.529 162.634Z" fill="white"/>
<path d="M160.529 162.634C160.529 162.634 162.122 159.155 188.396 142.631C214.67 126.107 224.223 123.498 224.223 123.498L213.077 153.068C213.077 153.068 213.077 153.068 200.338 158.286C187.599 163.504 181.23 165.243 181.23 165.243L160.529 162.634Z" fill="url(#paint8_linear_4989_2984)" fill-opacity="0.2"/>
<path d="M234.574 93.926C234.574 93.926 241.74 86.0988 249.702 80.8806C257.663 75.6625 260.541 73.5007 280.753 66.0959C300.964 58.6911 304.638 50.4414 304.638 50.4414L286.425 96.955C286.425 96.955 276.93 100.609 267.217 101.753C257.503 102.897 246.359 108.027 237.759 114.799C229.159 121.57 224.223 123.496 224.223 123.496L234.574 93.926Z" fill="white"/>
<path d="M234.574 93.926C234.574 93.926 241.74 86.0988 249.702 80.8806C257.663 75.6625 260.541 73.5007 280.753 66.0959C300.964 58.6911 304.638 50.4414 304.638 50.4414L286.425 96.955C286.425 96.955 276.93 100.609 267.217 101.753C257.503 102.897 246.359 108.027 237.759 114.799C229.159 121.57 224.223 123.496 224.223 123.496L234.574 93.926Z" fill="url(#paint9_linear_4989_2984)" fill-opacity="0.2"/>
<path d="M207.909 138.77C209.37 134.132 222.153 129.955 222.153 129.955L216.421 144.628C216.421 144.628 213.103 146.348 211.751 146.348C210.399 146.348 208.325 145.004 207.909 143.572C207.388 141.779 207.349 140.549 207.909 138.77Z" fill="#FCBF49"/>
<path d="M224.223 123.495C224.223 123.495 234.574 116.552 240.624 112.487C246.675 108.422 252.089 104.294 266.421 101.753C280.752 99.2122 286.425 96.9551 286.425 96.9551L273.109 130.653C273.109 130.653 253.363 132.749 245.083 140.435C236.803 148.12 213.077 153.065 213.077 153.065L224.223 123.495Z" fill="url(#paint10_linear_4989_2984)"/>
<path d="M181.23 165.24C182.724 164.64 189.192 162.631 197.95 159.152C206.708 155.674 213.077 153.064 213.077 153.064C213.077 153.064 210.249 156.611 210.689 159.152C211.058 161.289 212.309 162.156 213.873 163.501C215.961 165.296 220.243 166.11 220.243 166.11H200.338L181.23 165.24Z" fill="url(#paint11_linear_4989_2984)"/>
<path d="M213.077 153.066C213.077 153.066 215.784 151.617 224.701 149.52C233.618 147.424 245.083 140.438 245.083 140.438C245.083 140.438 245.721 147.848 241.74 154.806C237.759 161.763 234.574 166.981 234.574 166.981L218.65 166.112C218.65 166.112 210.857 164.049 210.689 159.154C210.52 154.259 213.077 153.066 213.077 153.066Z" fill="#5F95C4"/>
<path d="M314.988 178.285C313.395 176.546 312.884 176.868 311.803 176.546C311.12 176.342 310.211 176.546 310.211 176.546C310.211 176.546 311.007 180.024 311.007 184.373C311.007 188.721 310.211 190.461 310.211 190.461C310.211 190.461 310.903 190.729 311.803 190.46C312.885 190.138 314.192 189.591 314.988 188.721C315.784 187.851 316.58 187.851 316.58 184.372C316.58 180.894 316.58 180.024 314.988 178.285Z" fill="#D9D9D9"/>
<g filter="url(#filter3_di_4989_2984)">
<path d="M190.784 187.856C191.157 186.701 192.376 186.117 193.172 186.117C193.968 186.117 201.433 185.155 206.708 184.377C217.649 182.763 223.693 181.209 234.574 179.159C264.748 173.475 307.026 165.244 311.803 164.374C316.58 163.505 353.471 161.608 354.001 162.635C354.53 163.662 302.249 182.638 295.88 184.377C289.51 186.117 251.293 191.335 242.536 192.205C233.778 193.074 224.223 193.944 219.446 193.944C214.669 193.944 194.765 192.205 193.172 191.335C191.58 190.465 190.266 189.457 190.784 187.856Z" fill="#A6A6A6"/>
</g>
<path d="M100.816 190.46C100.816 192.861 100.816 194.808 98.4271 194.808C96.0386 194.808 96.0386 192.861 96.0386 190.46C96.0386 188.058 96.0386 186.111 98.4271 186.111C100.816 186.111 100.816 188.058 100.816 190.46Z" fill="#D9D9D9"/>
<path d="M92.8537 190.46C92.8537 192.861 92.8537 194.808 90.4652 194.808C88.0767 194.808 88.0767 192.861 88.0767 190.46C88.0767 188.058 88.0767 186.111 90.4652 186.111C92.8537 186.111 92.8537 188.058 92.8537 190.46Z" fill="#D9D9D9"/>
<path d="M84.8923 190.46C84.8923 192.861 84.8923 194.808 82.5038 194.808C80.1152 194.808 80.1152 192.861 80.1152 190.46C80.1152 188.058 80.1152 186.111 82.5038 186.111C84.8923 186.111 84.8923 188.058 84.8923 190.46Z" fill="#D9D9D9"/>
<path d="M38.5222 190.655C38.5222 193.057 38.5222 195.004 36.1337 195.004C33.7451 195.004 33.7451 193.057 33.7451 190.655C33.7451 188.254 33.7451 186.307 36.1337 186.307C38.5222 186.307 38.5222 188.254 38.5222 190.655Z" fill="#D9D9D9"/>
<path d="M30.5603 190.655C30.5603 193.057 30.5603 195.004 28.1717 195.004C25.7832 195.004 25.7832 193.057 25.7832 190.655C25.7832 188.254 25.7832 186.307 28.1717 186.307C30.5603 186.307 30.5603 188.254 30.5603 190.655Z" fill="#D9D9D9"/>
<path d="M22.5989 190.655C22.5989 193.057 22.5989 195.004 20.2103 195.004C17.8218 195.004 17.8218 193.057 17.8218 190.655C17.8218 188.254 17.8218 186.307 20.2103 186.307C22.5989 186.307 22.5989 188.254 22.5989 190.655Z" fill="#D9D9D9"/>
<path d="M14.5735 190.655C14.5735 193.057 14.5735 195.004 12.1849 195.004C9.79639 195.004 9.79639 193.057 9.79639 190.655C9.79639 188.254 9.79639 186.307 12.1849 186.307C14.5735 186.307 14.5735 188.254 14.5735 190.655Z" fill="#D9D9D9"/>
<path d="M76.9304 190.46C76.9304 192.861 76.9304 194.808 74.5419 194.808C72.1533 194.808 72.1533 192.861 72.1533 190.46C72.1533 188.058 72.1533 186.111 74.5419 186.111C76.9304 186.111 76.9304 188.058 76.9304 190.46Z" fill="#D9D9D9"/>
<path d="M68.9685 190.46C68.9685 192.861 68.9685 194.808 66.5799 194.808C64.1914 194.808 64.1914 192.861 64.1914 190.46C64.1914 188.058 64.1914 186.111 66.5799 186.111C68.9685 186.111 68.9685 188.058 68.9685 190.46Z" fill="#D9D9D9"/>
<path d="M61.0066 190.46C61.0066 192.861 61.0066 194.808 58.618 194.808C56.2295 194.808 56.2295 192.861 56.2295 190.46C56.2295 188.058 56.2295 186.111 58.618 186.111C61.0066 186.111 61.0066 188.058 61.0066 190.46Z" fill="#D9D9D9"/>
<path d="M53.0447 190.46C53.0447 192.861 53.0447 194.808 50.6561 194.808C48.2676 194.808 48.2676 192.861 48.2676 190.46C48.2676 188.058 48.2676 186.111 50.6561 186.111C53.0447 186.111 53.0447 188.058 53.0447 190.46Z" fill="#D9D9D9"/>
<g filter="url(#filter4_i_4989_2984)">
<path d="M107.185 175.678H120.581C121.871 175.678 122.95 176.903 122.879 178.192C122.783 179.93 122.694 182.796 122.694 187.437C122.694 194.642 122.909 201.61 123.029 204.944C123.07 206.066 122.186 207.007 121.064 207.03L109.218 207.28C108.164 207.303 107.276 206.504 107.206 205.451C107.005 202.407 106.65 195.861 106.65 187.437C106.65 175.658 107.185 175.678 107.185 175.678Z" fill="#747474" fill-opacity="0.5"/>
</g>
<path d="M94.4463 173.068C107.485 166.819 104.956 169.081 120.72 153.934C127.136 147.769 135.74 142.197 143.809 139.15C148.305 137.452 155.752 135.671 155.752 136.541C155.752 137.411 153.496 138.456 152.09 139.736C141.649 149.248 132.981 163.492 129.16 168.383C125.338 173.273 119.128 174.807 119.128 174.807C119.128 174.807 108.88 175.752 102.408 174.807C99.2652 174.348 94.4463 173.068 94.4463 173.068Z" fill="#6CACE4"/>
<path d="M4.44586 195.084C4.44586 195.084 58.4107 181.607 68.9683 179.156C78.9308 176.844 94.446 173.068 94.446 173.068C94.446 173.068 99.8743 174.377 102.408 174.808C106.709 175.539 117.535 174.808 117.535 174.808C117.535 174.808 106.691 177.629 103.204 179.156C98.6407 181.154 95.9067 181.747 91.2613 183.505C82.802 186.705 69.7644 192.202 69.7644 192.202L4.89172 217.031C4.89172 217.031 4 212.154 4 206.301C4 200.449 4.44586 195.084 4.44586 195.084Z" fill="#8B8B8B"/>
<path d="M166.739 135.545L258.459 22.3574H259.096L185.211 118.776L166.739 135.545Z" fill="#D9D9D9"/>
<path d="M191.58 187.247C191.935 186.858 205.182 184.981 213.873 183.753C236.383 180.573 248.877 177.081 271.198 172.574C287.654 169.251 296.676 167.684 313.236 164.889C327.504 162.482 349.542 162.793 350.179 163.492C350.816 164.19 327.581 164.276 313.236 166.287C296.639 168.613 287.64 170.566 271.198 173.971C248.855 178.599 236.403 182.483 213.873 185.849C205.68 187.073 194.128 189.343 192.854 189.343C191.58 189.343 191.295 189.416 190.943 188.645C190.72 188.157 191.225 187.637 191.58 187.247Z" fill="white"/>
<path d="M4.4458 194.906C4.4458 194.906 41.8981 185.152 70.5605 178.864C86.968 175.264 92.222 176.079 108.14 166.287C108.777 165.895 127.249 148.818 126.612 149.517C125.975 150.216 110.688 165.266 108.14 166.986C91.5799 178.166 76.994 178.151 70.5605 179.563C41.8981 185.851 4.4458 195.605 4.4458 195.605V194.906Z" fill="white"/>
<path d="M116.923 218.339C116.923 218.339 176.895 220.372 214.801 214.795C252.678 209.223 310.007 189.95 310.007 189.95L310.613 190.681C310.613 190.681 252.875 209.459 214.801 214.922C176.95 220.352 117.111 218.565 117.111 218.565L116.923 218.339Z" fill="#CFCFCF"/>
<path d="M430.952 77.5V125.5H420.136V82.172L425.064 87.1H387.88L392.808 82.172V125.5H381.928V77.5H430.952ZM458.289 126.46C453.766 126.46 449.798 125.671 446.385 124.092C442.971 122.471 440.305 120.231 438.385 117.372C436.465 114.471 435.505 111.121 435.505 107.324C435.505 103.484 436.465 100.135 438.385 97.276C440.305 94.3747 442.971 92.1347 446.385 90.556C449.798 88.9347 453.766 88.124 458.289 88.124C462.811 88.124 466.779 88.9347 470.193 90.556C473.606 92.1347 476.251 94.3747 478.129 97.276C480.049 100.135 481.009 103.484 481.009 107.324C481.009 111.121 480.049 114.471 478.129 117.372C476.251 120.231 473.606 122.471 470.193 124.092C466.779 125.671 462.811 126.46 458.289 126.46ZM458.289 118.332C460.763 118.332 462.875 117.884 464.625 116.988C466.417 116.092 467.782 114.833 468.721 113.212C469.702 111.548 470.193 109.585 470.193 107.324C470.193 105.02 469.702 103.057 468.721 101.436C467.782 99.772 466.417 98.492 464.625 97.596C462.875 96.7 460.763 96.252 458.289 96.252C455.857 96.252 453.745 96.7 451.953 97.596C450.161 98.492 448.774 99.772 447.793 101.436C446.854 103.057 446.385 105.02 446.385 107.324C446.385 109.585 446.854 111.548 447.793 113.212C448.774 114.833 450.161 116.092 451.953 116.988C453.745 117.884 455.857 118.332 458.289 118.332ZM485.317 89.084H496.005V100.668L495.557 102.076V110.844L496.005 113.468V136.06H485.317V89.084ZM492.293 107.324C493.018 103.441 494.277 100.071 496.069 97.212C497.904 94.3107 500.186 92.0707 502.917 90.492C505.69 88.9133 508.762 88.124 512.133 88.124C515.717 88.124 518.853 88.9347 521.541 90.556C524.272 92.1347 526.405 94.3747 527.941 97.276C529.477 100.135 530.245 103.484 530.245 107.324C530.245 111.121 529.477 114.471 527.941 117.372C526.405 120.231 524.272 122.471 521.541 124.092C518.853 125.671 515.717 126.46 512.133 126.46C508.72 126.46 505.648 125.671 502.917 124.092C500.229 122.513 497.968 120.295 496.133 117.436C494.298 114.535 493.018 111.164 492.293 107.324ZM519.429 107.324C519.429 105.191 518.981 103.313 518.085 101.692C517.232 100.028 516.037 98.748 514.501 97.852C512.965 96.9133 511.194 96.444 509.189 96.444C507.184 96.444 505.285 96.9133 503.493 97.852C501.701 98.748 500.122 100.028 498.757 101.692C497.434 103.313 496.389 105.191 495.621 107.324C496.389 109.457 497.434 111.335 498.757 112.956C500.122 114.577 501.701 115.857 503.493 116.796C505.285 117.692 507.184 118.14 509.189 118.14C511.194 118.14 512.965 117.692 514.501 116.796C516.037 115.857 517.232 114.577 518.085 112.956C518.981 111.335 519.429 109.457 519.429 107.324ZM567.929 125.5L566.393 112.188L568.121 107.324L566.393 102.524L567.929 89.084H579.001L576.889 107.324L579.001 125.5H567.929ZM570.745 107.324C570.062 111.164 568.803 114.535 566.969 117.436C565.177 120.295 562.894 122.513 560.121 124.092C557.39 125.671 554.318 126.46 550.905 126.46C547.363 126.46 544.227 125.671 541.497 124.092C538.766 122.471 536.633 120.231 535.097 117.372C533.603 114.471 532.857 111.121 532.857 107.324C532.857 103.484 533.603 100.135 535.097 97.276C536.633 94.3747 538.766 92.1347 541.497 90.556C544.227 88.9347 547.363 88.124 550.905 88.124C554.318 88.124 557.39 88.9133 560.121 90.492C562.894 92.0707 565.198 94.3107 567.033 97.212C568.867 100.071 570.105 103.441 570.745 107.324ZM543.673 107.324C543.673 109.457 544.099 111.335 544.953 112.956C545.849 114.577 547.065 115.857 548.601 116.796C550.137 117.692 551.907 118.14 553.913 118.14C555.918 118.14 557.795 117.692 559.545 116.796C561.337 115.857 562.915 114.577 564.281 112.956C565.646 111.335 566.713 109.457 567.481 107.324C566.713 105.191 565.646 103.313 564.281 101.692C562.915 100.028 561.337 98.748 559.545 97.852C557.795 96.9133 555.918 96.444 553.913 96.444C551.907 96.444 550.137 96.9133 548.601 97.852C547.065 98.748 545.849 100.028 544.953 101.692C544.099 103.313 543.673 105.191 543.673 107.324ZM380.136 178.5L382.184 160.324L380.136 142.084H408.168C411.667 142.084 414.44 142.916 416.488 144.58C418.536 146.201 419.56 148.42 419.56 151.236C419.56 153.881 418.536 156.036 416.488 157.7C414.44 159.321 411.581 160.281 407.912 160.58L408.68 158.788C412.947 158.916 416.189 159.812 418.408 161.476C420.669 163.097 421.8 165.38 421.8 168.324C421.8 171.481 420.648 173.977 418.344 175.812C416.083 177.604 412.968 178.5 409 178.5H380.136ZM390.44 176.132L386.344 171.588H405.736C407.571 171.588 408.915 171.225 409.768 170.5C410.621 169.732 411.048 168.665 411.048 167.3C411.048 166.063 410.579 165.06 409.64 164.292C408.701 163.481 407.165 163.076 405.032 163.076H388.52V156.996H403.624C405.416 156.996 406.717 156.633 407.528 155.908C408.381 155.183 408.808 154.201 408.808 152.964C408.808 151.812 408.424 150.873 407.656 150.148C406.931 149.423 405.736 149.06 404.072 149.06H386.408L390.44 144.516L392.424 160.324L390.44 176.132ZM446.835 168.388V159.556H480.115V168.388H446.835ZM470.707 130.5L493.171 178.5H481.587L461.939 134.916H465.523L445.875 178.5H434.291L456.755 130.5H470.707ZM495.522 142.084H506.21V153.668L505.762 155.076V163.844L506.21 166.468V189.06H495.522V142.084ZM502.498 160.324C503.223 156.441 504.482 153.071 506.274 150.212C508.109 147.311 510.391 145.071 513.122 143.492C515.895 141.913 518.967 141.124 522.338 141.124C525.922 141.124 529.058 141.935 531.746 143.556C534.477 145.135 536.61 147.375 538.146 150.276C539.682 153.135 540.45 156.484 540.45 160.324C540.45 164.121 539.682 167.471 538.146 170.372C536.61 173.231 534.477 175.471 531.746 177.092C529.058 178.671 525.922 179.46 522.338 179.46C518.925 179.46 515.853 178.671 513.122 177.092C510.434 175.513 508.173 173.295 506.338 170.436C504.503 167.535 503.223 164.164 502.498 160.324ZM529.634 160.324C529.634 158.191 529.186 156.313 528.29 154.692C527.437 153.028 526.242 151.748 524.706 150.852C523.17 149.913 521.399 149.444 519.394 149.444C517.389 149.444 515.49 149.913 513.698 150.852C511.906 151.748 510.327 153.028 508.962 154.692C507.639 156.313 506.594 158.191 505.826 160.324C506.594 162.457 507.639 164.335 508.962 165.956C510.327 167.577 511.906 168.857 513.698 169.796C515.49 170.692 517.389 171.14 519.394 171.14C521.399 171.14 523.17 170.692 524.706 169.796C526.242 168.857 527.437 167.577 528.29 165.956C529.186 164.335 529.634 162.457 529.634 160.324ZM574.998 142.084V150.276H550.55L555.478 145.412V178.5H544.79V142.084H574.998ZM597.038 179.46C592.729 179.46 588.868 178.671 585.454 177.092C582.084 175.471 579.417 173.209 577.454 170.308C575.534 167.407 574.574 164.036 574.574 160.196C574.574 156.399 575.492 153.071 577.326 150.212C579.204 147.353 581.764 145.135 585.006 143.556C588.249 141.935 591.94 141.124 596.078 141.124C600.302 141.124 603.929 142.063 606.958 143.94C609.988 145.775 612.313 148.377 613.934 151.748C615.598 155.119 616.43 159.087 616.43 163.652H583.15V156.548H610.67L606.51 159.108C606.34 156.975 605.806 155.161 604.91 153.668C604.057 152.175 602.884 151.023 601.39 150.212C599.897 149.401 598.148 148.996 596.142 148.996C593.966 148.996 592.068 149.444 590.446 150.34C588.868 151.193 587.63 152.409 586.734 153.988C585.881 155.524 585.454 157.337 585.454 159.428C585.454 161.945 586.009 164.1 587.118 165.892C588.228 167.684 589.849 169.049 591.982 169.988C594.116 170.927 596.697 171.396 599.726 171.396C602.457 171.396 605.209 171.012 607.982 170.244C610.756 169.433 613.252 168.303 615.47 166.852V174.02C613.081 175.727 610.286 177.071 607.086 178.052C603.929 178.991 600.58 179.46 597.038 179.46ZM620.762 142.084H631.386V178.5H620.762V142.084ZM651.29 142.084H661.914V178.5H651.29V142.084ZM626.842 155.908H655.45V163.972H626.842V155.908ZM679.357 145.796H690.045V178.5H679.357V145.796ZM664.893 142.084H704.509V150.276H664.893V142.084ZM707.485 178.5V142.084H717.981V172.868L715.357 172.164L737.309 142.084H751.069V178.5H740.573V147.14L743.197 147.908L720.861 178.5H707.485ZM757.19 142.084H767.814V178.5H757.19V142.084ZM787.718 142.084H798.342V178.5H787.718V142.084ZM763.27 155.908H791.878V163.972H763.27V155.908ZM814.761 190.02C812.372 190.02 810.217 189.721 808.297 189.124C806.377 188.527 804.564 187.652 802.857 186.5V178.82C804.649 179.972 806.356 180.804 807.977 181.316C809.598 181.828 811.39 182.084 813.353 182.084C815.102 182.084 816.66 181.679 818.025 180.868C819.39 180.1 820.521 178.713 821.417 176.708L836.585 142.084H847.913L829.737 180.164C828.628 182.553 827.284 184.473 825.705 185.924C824.126 187.375 822.398 188.42 820.521 189.06C818.686 189.7 816.766 190.02 814.761 190.02ZM817.065 176.196L801.001 142.084H812.777L827.497 176.196H817.065Z" fill="#6CACE4"/>
<defs>
<filter id="filter0_di_4989_2984" x="0" y="158.283" width="320.106" height="98.4473" filterUnits="userSpaceOnUse" color-interpolation-filters="sRGB">
<feFlood flood-opacity="0" result="BackgroundImageFix"/>
<feColorMatrix in="SourceAlpha" type="matrix" values="0 0 0 0 0 0 0 0 0 0 0 0 0 0 0 0 0 0 127 0" result="hardAlpha"/>
<feOffset dy="4"/>
<feGaussianBlur stdDeviation="2"/>
<feComposite in2="hardAlpha" operator="out"/>
<feColorMatrix type="matrix" values="0 0 0 0 0 0 0 0 0 0 0 0 0 0 0 0 0 0 0.25 0"/>
<feBlend mode="normal" in2="BackgroundImageFix" result="effect1_dropShadow_4989_2984"/>
<feBlend mode="normal" in="SourceGraphic" in2="effect1_dropShadow_4989_2984" result="shape"/>
<feColorMatrix in="SourceAlpha" type="matrix" values="0 0 0 0 0 0 0 0 0 0 0 0 0 0 0 0 0 0 127 0" result="hardAlpha"/>
<feOffset dy="4"/>
<feGaussianBlur stdDeviation="2"/>
<feComposite in2="hardAlpha" operator="arithmetic" k2="-1" k3="1"/>
<feColorMatrix type="matrix" values="0 0 0 0 1 0 0 0 0 1 0 0 0 0 1 0 0 0 0.25 0"/>
<feBlend mode="normal" in2="shape" result="effect2_innerShadow_4989_2984"/>
</filter>
<filter id="filter1_i_4989_2984" x="4.4458" y="205.229" width="168.822" height="43.5078" filterUnits="userSpaceOnUse" color-interpolation-filters="sRGB">
<feFlood flood-opacity="0" result="BackgroundImageFix"/>
<feBlend mode="normal" in="SourceGraphic" in2="BackgroundImageFix" result="shape"/>
<feColorMatrix in="SourceAlpha" type="matrix" values="0 0 0 0 0 0 0 0 0 0 0 0 0 0 0 0 0 0 127 0" result="hardAlpha"/>
<feOffset dy="-4"/>
<feGaussianBlur stdDeviation="2"/>
<feComposite in2="hardAlpha" operator="arithmetic" k2="-1" k3="1"/>
<feColorMatrix type="matrix" values="0 0 0 0 0 0 0 0 0 0 0 0 0 0 0 0 0 0 0.25 0"/>
<feBlend mode="normal" in2="shape" result="effect1_innerShadow_4989_2984"/>
</filter>
<filter id="filter2_di_4989_2984" x="133.44" y="0" width="195.102" height="176.068" filterUnits="userSpaceOnUse" color-interpolation-filters="sRGB">
<feFlood flood-opacity="0" result="BackgroundImageFix"/>
<feColorMatrix in="SourceAlpha" type="matrix" values="0 0 0 0 0 0 0 0 0 0 0 0 0 0 0 0 0 0 127 0" result="hardAlpha"/>
<feOffset dy="4"/>
<feGaussianBlur stdDeviation="2"/>
<feComposite in2="hardAlpha" operator="out"/>
<feColorMatrix type="matrix" values="0 0 0 0 0 0 0 0 0 0 0 0 0 0 0 0 0 0 0.25 0"/>
<feBlend mode="normal" in2="BackgroundImageFix" result="effect1_dropShadow_4989_2984"/>
<feBlend mode="normal" in="SourceGraphic" in2="effect1_dropShadow_4989_2984" result="shape"/>
<feColorMatrix in="SourceAlpha" type="matrix" values="0 0 0 0 0 0 0 0 0 0 0 0 0 0 0 0 0 0 127 0" result="hardAlpha"/>
<feOffset dy="4"/>
<feGaussianBlur stdDeviation="2"/>
<feComposite in2="hardAlpha" operator="arithmetic" k2="-1" k3="1"/>
<feColorMatrix type="matrix" values="0 0 0 0 1 0 0 0 0 1 0 0 0 0 1 0 0 0 0.25 0"/>
<feBlend mode="normal" in2="shape" result="effect2_innerShadow_4989_2984"/>
</filter>
<filter id="filter3_di_4989_2984" x="180.269" y="159.938" width="173.735" height="40.4055" filterUnits="userSpaceOnUse" color-interpolation-filters="sRGB">
<feFlood flood-opacity="0" result="BackgroundImageFix"/>
<feColorMatrix in="SourceAlpha" type="matrix" values="0 0 0 0 0 0 0 0 0 0 0 0 0 0 0 0 0 0 127 0" result="hardAlpha"/>
<feOffset dx="-6" dy="2"/>
<feGaussianBlur stdDeviation="2.2"/>
<feComposite in2="hardAlpha" operator="out"/>
<feColorMatrix type="matrix" values="0 0 0 0 0 0 0 0 0 0 0 0 0 0 0 0 0 0 0.25 0"/>
<feBlend mode="normal" in2="BackgroundImageFix" result="effect1_dropShadow_4989_2984"/>
<feBlend mode="normal" in="SourceGraphic" in2="effect1_dropShadow_4989_2984" result="shape"/>
<feColorMatrix in="SourceAlpha" type="matrix" values="0 0 0 0 0 0 0 0 0 0 0 0 0 0 0 0 0 0 127 0" result="hardAlpha"/>
<feOffset dy="4"/>
<feGaussianBlur stdDeviation="2"/>
<feComposite in2="hardAlpha" operator="arithmetic" k2="-1" k3="1"/>
<feColorMatrix type="matrix" values="0 0 0 0 1 0 0 0 0 1 0 0 0 0 1 0 0 0 0.25 0"/>
<feBlend mode="normal" in2="shape" result="effect2_innerShadow_4989_2984"/>
</filter>
<filter id="filter4_i_4989_2984" x="106.65" y="175.678" width="16.3804" height="31.6035" filterUnits="userSpaceOnUse" color-interpolation-filters="sRGB">
<feFlood flood-opacity="0" result="BackgroundImageFix"/>
<feBlend mode="normal" in="SourceGraphic" in2="BackgroundImageFix" result="shape"/>
<feColorMatrix in="SourceAlpha" type="matrix" values="0 0 0 0 0 0 0 0 0 0 0 0 0 0 0 0 0 0 127 0" result="hardAlpha"/>
<feOffset/>
<feGaussianBlur stdDeviation="1.5"/>
<feComposite in2="hardAlpha" operator="arithmetic" k2="-1" k3="1"/>
<feColorMatrix type="matrix" values="0 0 0 0 0 0 0 0 0 0 0 0 0 0 0 0 0 0 1 0"/>
<feBlend mode="normal" in2="shape" result="effect1_innerShadow_4989_2984"/>
</filter>
<linearGradient id="paint0_linear_4989_2984" x1="115.911" y1="130.219" x2="116.993" y2="246.724" gradientUnits="userSpaceOnUse">
<stop stop-color="#BEBEBE"/>
<stop offset="0.682692" stop-color="#1E1E1E"/>
<stop offset="0.774038" stop-color="#262626"/>
<stop offset="1" stop-color="#646464"/>
</linearGradient>
<linearGradient id="paint1_linear_4989_2984" x1="41.8981" y1="229.872" x2="173.268" y2="229.872" gradientUnits="userSpaceOnUse">
<stop stop-color="#424242"/>
<stop offset="1" stop-color="#A8A8A8"/>
</linearGradient>
<linearGradient id="paint2_linear_4989_2984" x1="67.758" y1="210.692" x2="71.4886" y2="257.952" gradientUnits="userSpaceOnUse">
<stop stop-color="#424242"/>
<stop offset="0.557093" stop-color="#A8A8A8"/>
<stop offset="0.645327" stop-color="#868686"/>
<stop offset="1" stop-color="#424242"/>
</linearGradient>
<linearGradient id="paint3_linear_4989_2984" x1="246.049" y1="195.309" x2="237.856" y2="44.5335" gradientUnits="userSpaceOnUse">
<stop stop-color="#343434"/>
<stop offset="1" stop-color="#666666"/>
</linearGradient>
<linearGradient id="paint4_linear_4989_2984" x1="148.845" y1="138.111" x2="143.299" y2="217.362" gradientUnits="userSpaceOnUse">
<stop offset="0.00984511"/>
<stop offset="1" stop-opacity="0"/>
</linearGradient>
<linearGradient id="paint5_linear_4989_2984" x1="139.155" y1="205.479" x2="161.773" y2="218.534" gradientUnits="userSpaceOnUse">
<stop stop-color="#6CACE4"/>
<stop offset="0.43899" stop-color="#C2D7E9"/>
<stop offset="1" stop-color="#6CACE4"/>
</linearGradient>
<linearGradient id="paint6_linear_4989_2984" x1="174.3" y1="122.111" x2="211.495" y2="137.012" gradientUnits="userSpaceOnUse">
<stop stop-color="#6CACE4"/>
<stop offset="0.455894" stop-color="#C2D7E9"/>
<stop offset="1" stop-color="#6CACE4"/>
</linearGradient>
<linearGradient id="paint7_linear_4989_2984" x1="259.247" y1="21.8627" x2="304.936" y2="37.1842" gradientUnits="userSpaceOnUse">
<stop stop-color="#6CACE4"/>
<stop offset="0.610411" stop-color="#C2D7E9"/>
<stop offset="1" stop-color="#6CACE4"/>
</linearGradient>
<linearGradient id="paint8_linear_4989_2984" x1="223.959" y1="137.945" x2="157.286" y2="178.028" gradientUnits="userSpaceOnUse">
<stop stop-opacity="0"/>
<stop offset="0.16627" stop-opacity="0.01"/>
<stop offset="0.323436" stop-opacity="0.323436"/>
<stop offset="1"/>
</linearGradient>
<linearGradient id="paint9_linear_4989_2984" x1="271.377" y1="132.23" x2="226.864" y2="115.925" gradientUnits="userSpaceOnUse">
<stop stop-opacity="0"/>
<stop offset="0.398464" stop-opacity="0.807755"/>
<stop offset="0.857229" stop-color="#E6E6E6" stop-opacity="0.654459"/>
<stop offset="1"/>
</linearGradient>
<linearGradient id="paint10_linear_4989_2984" x1="234.133" y1="113.257" x2="267.749" y2="128.094" gradientUnits="userSpaceOnUse">
<stop stop-color="#6CACE4"/>
<stop offset="0.610411" stop-color="#C2D7E9"/>
<stop offset="1" stop-color="#6CACE4"/>
</linearGradient>
<linearGradient id="paint11_linear_4989_2984" x1="170.455" y1="167.8" x2="205.125" y2="189.096" gradientUnits="userSpaceOnUse">
<stop stop-color="#6CACE4"/>
<stop offset="0.225519" stop-color="#C2D7E9"/>
<stop offset="1" stop-color="#6CACE4"/>
</linearGradient>
</defs>
</svg>